<svg width="32" height="32" viewBox="0 0 16 16" fill="none" xmlns="http://www.w3.org/2000/svg">
<g clip-path="url(#clip0)">
<path d="M6 0.278001C6.09761 0.396613 6.15741 0.541773 6.17168 0.694724C6.18594 0.847674 6.154 1.00139 6.08 1.136C5.50186 2.19748 5.19993 3.38729 5.202 4.596C5.202 8.617 8.48 11.873 12.52 11.873C13.047 11.873 13.56 11.818 14.053 11.713C14.2041 11.6803 14.3615 11.6928 14.5056 11.749C14.6497 11.8052 14.774 11.9026 14.863 12.029C14.957 12.1605 15.0049 12.3193 14.9993 12.4808C14.9937 12.6423 14.9349 12.7974 14.832 12.922C14.0477 13.8854 13.0582 14.6617 11.9358 15.1942C10.8134 15.7267 9.58632 16.002 8.344 16C3.734 16 0 12.286 0 7.71C0 4.266 2.114 1.312 5.124 0.060001C5.27394 -0.00336719 5.44039 -0.0163732 5.59835 0.0229366C5.75631 0.0622464 5.89725 0.15175 6 0.278001V0.278001ZM4.858 1.311C3.7006 1.93183 2.73304 2.85464 2.05813 3.98136C1.38323 5.10808 1.0262 6.39661 1.025 7.71C1.025 11.73 4.304 14.986 8.344 14.986C9.31144 14.9877 10.2696 14.7975 11.1631 14.4263C12.0565 14.0552 12.8675 13.5106 13.549 12.824C13.212 12.866 12.869 12.887 12.52 12.887C7.91 12.887 4.177 9.173 4.177 4.597C4.177 3.43 4.419 2.319 4.858 1.311V1.311Z" fill="white"/>
</g>
<defs>
<clipPath id="clip0">
<rect width="16" height="16" fill="white"/>
</clipPath>
</defs>
</svg>
